<?xml version="1.0" encoding="UTF-8"?>
<svg xmlns="http://www.w3.org/2000/svg" version="1.1" viewBox="0 0 126.56 129.18">
  <defs>
    <style>
      .cls-1 {
        fill: #fff;
      }

      .cls-2 {
        fill: none;
        stroke: #000;
        stroke-miterlimit: 10;
        stroke-width: 2px;
      }
    </style>
  </defs>
  <!-- Generator: Adobe Illustrator 28.7.9, SVG Export Plug-In . SVG Version: 1.2.0 Build 218)  -->
  <g>
    <g id="Calque_1">
      <g>
        <circle class="cls-2" cx="63.31" cy="64.31" r="52.37"/>
        <g>
          <path d="M65.69,44.06c3.93.03,9.83,1.65,15.47,4.27,7.61,3.53,14.23,8.46,20.08,14.45,1.19,1.22,1.2,1.86,0,3.08-7.02,7.13-15.01,12.79-24.46,16.25-10.09,3.69-20.03,3.14-29.83-1.04-8.35-3.56-15.54-8.81-21.86-15.29-1.09-1.12-1.1-1.78,0-2.9,6.88-7.03,14.72-12.65,23.99-16.13,4.59-1.72,9.34-2.7,16.61-2.68ZM63.23,47.19c-9.45,0-17.08,7.61-17.12,17.08-.03,9.49,7.61,17.18,17.08,17.19,9.45,0,17.08-7.61,17.12-17.08.03-9.49-7.61-17.18-17.08-17.19ZM98.38,64.29c-5.96-5.9-12.62-10.65-20.35-13.87,3.51,3.99,5.4,8.6,5.4,13.92,0,5.3-1.89,9.91-5.49,13.89,4.52-1.1,15.83-8.82,20.44-13.94ZM48.37,78.23c-6.6-7.02-7.75-19.39.17-27.95-7.88,3.37-14.55,8.13-20.53,14.04,5.99,5.92,12.64,10.67,20.36,13.9Z"/>
          <path d="M55.44,42.17c-.51-.36-1-.57-1.29-.93-1.04-1.29-2.03-2.63-3.01-3.97-.59-.81-.47-1.7.25-2.24.72-.54,1.6-.42,2.22.38,1.03,1.33,2.04,2.69,3.05,4.04.39.53.5,1.17.09,1.7-.31.4-.81.65-1.32,1.03Z"/>
          <path d="M70.99,86.48c.51.36,1,.57,1.29.93,1.04,1.29,2.03,2.63,3.01,3.97.59.8.47,1.7-.25,2.24-.72.55-1.61.42-2.22-.37-1.03-1.33-2.04-2.69-3.05-4.04-.39-.53-.5-1.17-.1-1.7.31-.4.82-.65,1.32-1.03Z"/>
          <path d="M64.78,37.09c0,.74.02,1.47,0,2.21-.04.99-.67,1.62-1.57,1.62-.9,0-1.53-.64-1.55-1.63-.02-1.5-.03-3,0-4.5.02-.96.7-1.64,1.56-1.64.86,0,1.52.69,1.55,1.65.03.76,0,1.53,0,2.29Z"/>
          <path d="M61.65,91.57c0-.74-.02-1.47,0-2.21.03-.99.67-1.62,1.57-1.62.9,0,1.53.64,1.55,1.63.03,1.5.03,3,0,4.5-.02.96-.7,1.64-1.56,1.64-.86,0-1.5-.69-1.56-1.65,0-.05,0-.11,0-.16,0-.71,0-1.42,0-2.13Z"/>
          <path d="M49.33,42.65c-.3.39-.55.88-.95,1.19-.5.38-1.15.34-1.61-.09-1.19-1.12-2.35-2.26-3.46-3.46-.54-.58-.42-1.45.13-2.01.53-.53,1.45-.66,2.01-.13,1.17,1.09,2.29,2.24,3.4,3.4.22.23.27.6.48,1.09Z"/>
          <path d="M81.59,90.81c-.18-.11-.61-.27-.91-.56-.99-.94-1.95-1.92-2.9-2.9-.71-.73-.72-1.69-.07-2.32.64-.62,1.53-.59,2.25.11,1.02.99,2.02,2,3.01,3.02.48.5.62,1.09.33,1.74-.28.61-.77.91-1.7.91Z"/>
          <path d="M83.61,37.68c.4.34.9.63,1.21,1.06.37.52.24,1.16-.19,1.61-1.09,1.14-2.19,2.27-3.35,3.34-.62.57-1.5.46-2.06-.12-.55-.57-.63-1.48-.06-2.08,1.06-1.13,2.17-2.22,3.29-3.29.24-.23.64-.3,1.16-.52Z"/>
          <path d="M42.83,90.97c-.41-.34-.92-.62-1.22-1.04-.37-.51-.26-1.15.17-1.61,1.08-1.15,2.19-2.27,3.34-3.35.61-.58,1.49-.48,2.07.09.56.56.64,1.48.09,2.08-1.06,1.13-2.17,2.22-3.29,3.29-.24.23-.64.31-1.15.54Z"/>
          <path d="M75.65,36.47c-.08.25-.19.61-.31.95-.42,1.16-.84,2.33-1.3,3.48-.35.88-1.16,1.25-1.97.96-.82-.3-1.24-1.11-.94-1.98.49-1.42,1.01-2.82,1.57-4.22.31-.76,1.08-1.1,1.81-.9.7.19,1.21.9,1.15,1.71Z"/>
          <path d="M52.63,93.95c-1.32-.03-2.1-.97-1.79-1.91.49-1.5,1.04-2.98,1.63-4.44.32-.78,1.15-1.07,1.91-.79.76.28,1.21,1.03.94,1.84-.49,1.5-1.02,2.99-1.66,4.43-.2.44-.82.69-1.04.87Z"/>
          <path class="cls-1" d="M63.23,47.19c9.48,0,17.12,7.7,17.08,17.19-.03,9.47-7.67,17.08-17.12,17.08-9.47,0-17.12-7.7-17.08-17.19.03-9.47,7.67-17.08,17.12-17.08ZM63.24,72.11c4.31-.01,7.75-3.5,7.73-7.83-.02-4.29-3.47-7.72-7.75-7.73-4.31,0-7.78,3.46-7.77,7.79,0,4.32,3.48,7.78,7.79,7.77Z"/>
          <path class="cls-1" d="M98.38,64.29c-4.61,5.12-15.93,12.84-20.44,13.94,3.61-3.98,5.49-8.59,5.49-13.89,0-5.32-1.88-9.93-5.4-13.92,7.72,3.22,14.39,7.97,20.35,13.87Z"/>
          <path class="cls-1" d="M48.37,78.23c-7.71-3.23-14.37-7.98-20.36-13.9,5.98-5.92,12.65-10.67,20.53-14.04-7.93,8.56-6.77,20.93-.17,27.95Z"/>
          <path d="M63.24,72.11c-4.32.01-7.79-3.45-7.79-7.77,0-4.32,3.46-7.79,7.77-7.79,4.28,0,7.73,3.44,7.75,7.73.02,4.33-3.42,7.82-7.73,7.83ZM67.87,64.29c-.02-2.59-2.15-4.68-4.71-4.64-2.59.04-4.66,2.17-4.61,4.74.05,2.56,2.13,4.61,4.67,4.6,2.58-.01,4.67-2.13,4.65-4.71Z"/>
          <path class="cls-1" d="M67.87,64.29c.02,2.58-2.07,4.69-4.65,4.71-2.54.01-4.62-2.04-4.67-4.6-.05-2.57,2.02-4.7,4.61-4.74,2.57-.04,4.69,2.05,4.71,4.64Z"/>
        </g>
      </g>
    </g>
  </g>
</svg>